<?xml version="1.0"?>
<svg xmlns="http://www.w3.org/2000/svg" xmlns:xlink="http://www.w3.org/1999/xlink" xmlns:svgjs="http://svgjs.com/svgjs" version="1.1" width="70" height="70" x="0" y="0" viewBox="0 0 512 512" style="enable-background:new 0 0 512 512" xml:space="preserve" class=""><g>
<g xmlns="http://www.w3.org/2000/svg">
	<g>
		<path d="M227.5,325.098L190,400.699c-3.001,5.7-1.799,12.6,2.7,17.101c4.501,4.5,11.4,5.7,17.1,2.701L285.4,383L227.5,325.098z" fill="#868e96" data-original="#000000" style="" class=""/>
	</g>
</g>
<g xmlns="http://www.w3.org/2000/svg">
	<g>
		
			<rect x="252.503" y="227.336" transform="matrix(0.7071 -0.7071 0.7071 0.7071 -93.4919 318.9015)" width="171.398" height="89.939" fill="#868e96" data-original="#000000" style="" class=""/>
	</g>
</g>
<g xmlns="http://www.w3.org/2000/svg">
	<g>
		<path d="M483.7,126.799c-17.1-16.8-46.8-16.8-63.6,0l-31.8,32.1l63.6,63.6l31.8-31.8c8.401-8.699,13.2-19.799,13.2-31.8    C496.9,146.6,492.101,135.5,483.7,126.799z" fill="#868e96" data-original="#000000" style="" class=""/>
	</g>
</g>
<g xmlns="http://www.w3.org/2000/svg">
	<g>
		<path d="M90.1,0c-8.291,0-15,6.709-15,15v62c0,8.291,6.709,15,15,15c8.291,0,15-6.709,15-15V15C105.1,6.709,98.391,0,90.1,0z" fill="#868e96" data-original="#000000" style="" class=""/>
	</g>
</g>
<g xmlns="http://www.w3.org/2000/svg">
	<g>
		<path d="M210.1,0c-8.291,0-15,6.709-15,15v62c0,8.291,6.709,15,15,15c8.291,0,15-6.709,15-15V15C225.1,6.709,218.391,0,210.1,0z" fill="#868e96" data-original="#000000" style="" class=""/>
	</g>
</g>
<g xmlns="http://www.w3.org/2000/svg">
	<g>
		<path d="M330.1,0c-8.291,0-15,6.709-15,15v62c0,8.291,6.709,15,15,15c8.291,0,15-6.709,15-15V15C345.1,6.709,338.391,0,330.1,0z" fill="#868e96" data-original="#000000" style="" class=""/>
	</g>
</g>
<g xmlns="http://www.w3.org/2000/svg">
	<g>
		<path d="M90.1,152h240c6.301,0,11.4,3.6,13.801,8.699c6.086-6.086,54.655-55.327,61.199-60V77c0-19.609-12.541-36.072-30-42.255    V77c0,24.814-20.186,45-45,45c-24.814,0-45-20.186-45-45V32h-30v45c0,24.814-20.186,45-45,45c-24.814,0-45-20.186-45-45V32h-30v45    c0,24.814-20.186,45-45,45c-24.814,0-45-20.186-45-45V34.745c-17.459,6.183-30,22.646-30,42.255v420c0,8.399,6.599,15,15,15h360    c8.401,0,15-6.601,15-15V311.6l-88.5,88.2c-3.263,3.263-89.154,45.627-93.3,47.7c-19.133,9.113-38.893,4.607-51.899-8.399    C166.6,433.999,163,428.299,160.9,422H90.1c-19.872,0-19.872-30,0-30h70.8c1.857-4.638,12.409-25.417,14.7-30H90.1    c-19.872,0-19.872-30,0-30h100.499l15-30H90.1c-19.872,0-19.872-30,0-30h142.5l30-30H90.1c-19.872,0-19.872-30,0-30h202.5l30-30    H90.1C70.228,182,70.228,152,90.1,152z" fill="#868e96" data-original="#000000" style="" class=""/>
	</g>
</g>
<g xmlns="http://www.w3.org/2000/svg">
</g>
<g xmlns="http://www.w3.org/2000/svg">
</g>
<g xmlns="http://www.w3.org/2000/svg">
</g>
<g xmlns="http://www.w3.org/2000/svg">
</g>
<g xmlns="http://www.w3.org/2000/svg">
</g>
<g xmlns="http://www.w3.org/2000/svg">
</g>
<g xmlns="http://www.w3.org/2000/svg">
</g>
<g xmlns="http://www.w3.org/2000/svg">
</g>
<g xmlns="http://www.w3.org/2000/svg">
</g>
<g xmlns="http://www.w3.org/2000/svg">
</g>
<g xmlns="http://www.w3.org/2000/svg">
</g>
<g xmlns="http://www.w3.org/2000/svg">
</g>
<g xmlns="http://www.w3.org/2000/svg">
</g>
<g xmlns="http://www.w3.org/2000/svg">
</g>
<g xmlns="http://www.w3.org/2000/svg">
</g>
</g></svg>
